<svg width="64" height="64" viewBox="0 0 64 64" fill="none" xmlns="http://www.w3.org/2000/svg">
<path d="M8 27.778C8 19.251 8 14.9876 9.00672 13.5533C10.0134 12.1189 14.0222 10.7467 22.0398 8.00227L23.5673 7.47942C27.7467 6.0488 29.8363 5.3335 32 5.3335C34.1637 5.3335 36.2533 6.0488 40.4328 7.47942L41.9603 8.00227C49.9779 10.7467 53.9867 12.1189 54.9933 13.5533C56 14.9876 56 19.251 56 27.778C56 29.0658 56 30.4626 56 31.9772C56 47.0119 44.696 54.3082 37.6037 57.4063C35.68 58.2466 34.7181 58.6668 32 58.6668C29.2819 58.6668 28.32 58.2466 26.3962 57.4063C19.3039 54.3082 8 47.0119 8 31.9772C8 30.4626 8 29.0658 8 27.778Z" stroke="#DFA958" stroke-width="3"/>
<path d="M28.9635 22.3026C30.3144 19.8789 30.9901 18.667 32 18.667C33.0099 18.667 33.6856 19.8789 35.0365 22.3026L35.3861 22.9296C35.7701 23.6184 35.9621 23.9628 36.2613 24.19C36.5608 24.4172 36.9336 24.5016 37.6789 24.6702L38.3579 24.8238C40.9816 25.4174 42.2933 25.7143 42.6053 26.7179C42.9176 27.7217 42.0232 28.7673 40.2347 30.859L39.7717 31.4001C39.2635 31.9945 39.0093 32.2915 38.8952 32.6593C38.7808 33.027 38.8192 33.4233 38.896 34.2163L38.9659 34.9385C39.2363 37.7289 39.3717 39.1243 38.5544 39.7446C37.7373 40.3649 36.5091 39.7993 34.0525 38.6683L33.4171 38.3755C32.7189 38.0542 32.3699 37.8934 32 37.8934C31.6301 37.8934 31.2811 38.0542 30.5829 38.3755L29.9475 38.6683C27.4909 39.7993 26.2626 40.3649 25.4455 39.7446C24.6284 39.1243 24.7636 37.7289 25.034 34.9385L25.104 34.2163C25.1808 33.4233 25.2193 33.027 25.1049 32.6593C24.9906 32.2915 24.7365 31.9945 24.2282 31.4001L23.7654 30.859C21.9768 28.7673 21.0825 27.7217 21.3946 26.7179C21.7067 25.7143 23.0185 25.4174 25.6422 24.8238L26.3209 24.6702C27.0664 24.5016 27.4392 24.4172 27.7387 24.19C28.0379 23.9628 28.2299 23.6184 28.6139 22.9296L28.9635 22.3026Z" stroke="#DFA958" stroke-width="3"/>
</svg>
